<svg width="40" height="29" viewBox="0 0 40 29" fill="none" xmlns="http://www.w3.org/2000/svg">
<path d="M11.6147 11.9943C11.7564 11.9141 11.8371 11.7962 11.8567 11.6406C12.132 9.46229 11.9875 7.39361 11.4232 5.43459L8.55086 7.05966C9.0558 9.22447 9.1598 11.2466 8.86284 13.1261C8.84942 13.2226 8.88287 13.2967 8.96319 13.3485C9.04351 13.4003 9.1266 13.4019 9.21247 13.3533L11.6147 11.9943ZM13.9396 7.70336C13.2553 6.98473 12.519 6.30942 11.7306 5.67742C12.1297 7.17421 12.2874 8.73531 12.2038 10.3607C12.9019 11.1938 13.531 12.0854 14.0911 13.0354C14.1873 11.0917 14.1368 9.31433 13.9396 7.70336ZM17.1098 11.8193C17.3472 9.88461 17.3409 7.9475 17.091 6.00795C16.841 4.06841 16.316 2.21636 15.5161 0.451818L12.6115 2.09511C14.0192 4.99391 14.5848 8.76363 14.3083 13.4043L17.1098 11.8193ZM19.5154 5.65735C18.5056 3.87259 17.3219 2.28627 15.9643 0.89839C17.0102 3.41837 17.5291 6.13375 17.5209 9.04453C18.1304 10.3723 18.5982 11.7301 18.9244 13.1181C18.9453 13.1952 18.9911 13.2485 19.0616 13.278C19.1322 13.3076 19.2018 13.3029 19.2705 13.2641L21.5826 11.956C21.6727 11.905 21.7399 11.8309 21.7841 11.7336C21.8283 11.6364 21.8373 11.5396 21.8111 11.4433C21.3309 9.44231 20.5656 7.51367 19.5154 5.65735Z" fill="#666666"/>
<g clip-path="url(#clip0_3_20)">
<path d="M6.91732 23.7556L6.91732 14.3269C6.91732 14.1835 6.80152 14.0677 6.65815 14.0677L2.04661 14.0677C1.90402 14.0677 1.78743 14.1835 1.78743 14.3269L1.78743 23.7556C1.78743 23.8982 1.90323 24.0148 2.04661 24.0148L6.65815 24.0148C6.80074 24.0148 6.91732 23.899 6.91732 23.7556Z" fill="#78909C"/>
<path d="M8.2959 23.7556L8.2959 14.3269C8.2959 14.1835 8.1801 14.0677 8.03673 14.0677L3.42518 14.0677C3.2826 14.0677 3.16601 14.1835 3.16601 14.3269L3.16601 23.7556C3.16601 23.8982 3.28181 24.0148 3.42518 24.0148L8.03673 24.0148C8.17932 24.0148 8.2959 23.899 8.2959 23.7556Z" fill="#B1E0CF"/>
<path d="M4.30511 15.9292C4.28463 15.9962 4.25785 16.0954 4.235 16.2144L4.00734 16.2144C3.97425 16.2144 3.94668 16.242 3.94668 16.2751L3.94668 16.7603C3.94668 16.7942 3.97425 16.821 4.00734 16.821L4.1964 16.821C4.23185 17.2519 4.41855 17.5749 4.74389 17.7584C5.05742 17.9357 5.38277 17.8679 5.638 17.5709C5.78689 17.3834 5.91608 17.0912 6.02085 16.821L6.5195 16.821C6.46121 17.0014 6.40292 17.1636 6.34699 17.2952C6.33832 17.3173 6.34541 17.3417 6.3651 17.3551L6.76923 17.6221L6.80783 17.6292L6.83934 17.6048C6.92126 17.4528 7.0473 17.1416 7.12844 16.8218L7.4207 16.8218C7.43679 16.8218 7.45222 16.8154 7.46359 16.804C7.47497 16.7926 7.48136 16.7772 7.48136 16.7611L7.48136 16.2758C7.48136 16.2598 7.47497 16.2443 7.46359 16.2329C7.45222 16.2216 7.43679 16.2152 7.4207 16.2152L7.20171 16.2152C7.18044 15.7654 7.02446 15.4589 6.72275 15.2833C6.48563 15.1454 6.21858 15.1454 6.02558 15.2833C5.81997 15.4282 5.72781 15.6638 5.61201 15.9615L5.59704 16.0009C5.57104 16.0694 5.54347 16.1427 5.51747 16.2152L4.9109 16.2152C4.98652 15.8985 5.13935 15.6031 5.17559 15.5495C5.18256 15.5392 5.18537 15.5267 5.18347 15.5144C5.18157 15.5021 5.1751 15.491 5.16535 15.4834L4.74389 15.1596L4.70766 15.1501L4.67536 15.169C4.52962 15.3644 4.39098 15.6488 4.30511 15.9292ZM6.60537 16.2144L6.23827 16.2144C6.28239 16.0781 6.32729 15.9922 6.43364 16.0009C6.54314 16.0104 6.58725 16.1151 6.60537 16.2144ZM5.01803 17.025C4.93611 16.9935 4.89436 16.9131 4.87309 16.821L5.29139 16.821C5.2457 16.9234 5.19764 17.0006 5.13699 17.0289C5.10311 17.0447 5.06451 17.0423 5.01803 17.025Z" fill="#78909C"/>
<path d="M8.45346 20.1839L8.45346 21.917L3.1668 21.917L3.1668 20.1839L8.45346 20.1839Z" fill="#E0E0E0"/>
<path d="M3.16601 20.1839L3.16601 21.917L1.62988 21.917L1.62988 20.1839L3.16601 20.1839Z" fill="#BDBDBD"/>
</g>
<g clip-path="url(#clip1_3_20)">
<path d="M10.8148 23.3638H5.29925C5.0037 23.341 4.71107 23.4355 4.4847 23.6269C4.25833 23.8183 4.11643 24.0911 4.08971 24.3863L4.08925 24.3904C4.11635 24.6895 4.26111 24.9656 4.49169 25.1581C4.72228 25.3505 5.01983 25.4435 5.31896 25.4166L5.31483 25.4171H10.8148C10.8495 25.4203 10.8844 25.4165 10.9175 25.4061C10.9507 25.3956 10.9814 25.3786 11.0079 25.3561C11.0344 25.3336 11.0562 25.3061 11.0719 25.2751C11.0876 25.2441 11.097 25.2102 11.0995 25.1755V23.6062C11.0905 23.5391 11.0575 23.4776 11.0066 23.433C10.9556 23.3884 10.8903 23.3638 10.8226 23.3638H10.8144H10.8148ZM5.29925 25.0312C5.16962 25.0312 5.0429 24.9927 4.93512 24.9207C4.82734 24.8487 4.74333 24.7463 4.69372 24.6266C4.64412 24.5068 4.63114 24.375 4.65643 24.2479C4.68172 24.1208 4.74414 24.004 4.8358 23.9123C4.92746 23.8206 5.04425 23.7582 5.17138 23.7329C5.29852 23.7076 5.43031 23.7206 5.55007 23.7702C5.66983 23.8198 5.77219 23.9038 5.84421 24.0116C5.91623 24.1194 5.95467 24.2461 5.95467 24.3758V24.3776C5.95467 24.7388 5.66179 25.0312 5.30108 25.0312H5.29925Z" fill="#666666"/>
<path d="M8.5635 19.7869H9.36146C9.30168 19.6133 9.19693 19.4586 9.05788 19.3386C8.91883 19.2186 8.75045 19.1377 8.56992 19.104L8.5635 19.1031V19.7869Z" fill="#666666"/>
<path d="M5.25754 23.0218H10.7291V21.3549C10.7057 21.1076 10.5861 20.8794 10.396 20.7195C10.2059 20.5596 9.96063 20.4808 9.713 20.5001H9.71621H1.02621C1.01881 20.492 1.00869 20.487 0.997792 20.4859C0.937541 20.4576 0.885962 20.4137 0.848406 20.3587C0.81085 20.3037 0.788684 20.2397 0.784208 20.1733V20.1724C0.791505 20.0899 0.823816 20.0117 0.876814 19.9481C0.929813 19.8846 1.00097 19.8387 1.08075 19.8167L1.0835 19.8163V19.0898C0.484458 19.1182 0 19.973 0 21.0418V27.354C0.023646 27.601 0.143234 27.8288 0.333066 27.9886C0.522898 28.1483 0.767823 28.2272 1.01521 28.2083H1.012H9.702C9.94833 28.2265 10.192 28.1477 10.381 27.9886C10.57 27.8296 10.6893 27.603 10.7135 27.3572L10.714 27.3535V25.6866H5.27267C4.38946 25.6866 3.67675 25.088 3.67675 24.3615C3.67675 23.6209 4.389 23.0223 5.258 23.0223L5.25754 23.0218Z" fill="#666666"/>
</g>
<g clip-path="url(#clip2_3_20)">
<path d="M35.0192 6.02995H23.4028C23.2261 6.02995 23.0835 6.17261 23.0835 6.34925V12.0308C23.0835 12.2065 23.2261 12.3501 23.4028 12.3501H35.0192C35.1948 12.3501 35.3385 12.2074 35.3385 12.0308V6.34925C35.3385 6.17359 35.1958 6.02995 35.0192 6.02995Z" fill="#78909C"/>
<path d="M35.0201 4.3315H23.4028C23.2261 4.3315 23.0835 4.47417 23.0835 4.65081V10.3323C23.0835 10.508 23.2261 10.6517 23.4028 10.6517H35.0192C35.1948 10.6517 35.3385 10.509 35.3385 10.3323V4.65081C35.3385 4.47417 35.1958 4.3315 35.0201 4.3315Z" fill="#B1E0CF"/>
<path d="M27.8081 8.27286L27.7692 8.2816C27.514 8.48444 27.0743 8.63778 26.7473 8.63778C26.394 8.63778 26.1028 8.50094 25.9126 8.27674H26.6017C26.6347 8.27674 26.6599 8.25054 26.6599 8.21851V7.7905C26.6599 7.75848 26.6337 7.73227 26.6017 7.73227H25.6845C25.6787 7.68763 25.6719 7.64298 25.6719 7.59542C25.6719 7.54787 25.6787 7.50322 25.6845 7.45858H26.6017C26.6347 7.45858 26.6599 7.43237 26.6599 7.40035V6.97137C26.6599 6.93934 26.6337 6.91314 26.6017 6.91314H25.9136C26.1048 6.68894 26.3949 6.55209 26.7482 6.55209C27.0899 6.55209 27.4412 6.66274 27.6634 6.84035L27.7013 6.84908L27.7314 6.82482L28.1283 6.028L28.1167 5.97268C27.7624 5.6922 27.3121 5.55535 26.7405 5.55535C25.7738 5.55535 25.0207 6.09691 24.7509 6.91216H24.1113C24.0792 6.91216 24.053 6.93837 24.053 6.9704V7.39938C24.053 7.4314 24.0792 7.45761 24.1113 7.45761H24.648C24.6451 7.50322 24.6412 7.54787 24.6412 7.59445C24.6412 7.64007 24.6451 7.68568 24.648 7.7313H24.1113C24.0792 7.7313 24.053 7.7575 24.053 7.78953V8.21754C24.053 8.24957 24.0792 8.27577 24.1113 8.27577H24.7509C25.0207 9.09103 25.7738 9.63356 26.7405 9.63356C27.2975 9.63356 27.778 9.46371 28.1701 9.12985L28.1827 9.07744L27.8391 8.29712L27.8081 8.27286Z" fill="#78909C"/>
<path d="M30.6187 4.1374H32.7539V10.6507H30.6187V4.1374Z" fill="#E0E0E0"/>
<path d="M30.6187 10.6517H32.7539V12.5442H30.6187V10.6517Z" fill="#BDBDBD"/>
</g>
<g clip-path="url(#clip3_3_20)">
<path d="M34.0304 1.2616L34.0004 8.05686C33.9708 8.42086 34.0856 8.78189 34.3202 9.06183C34.5547 9.34176 34.8901 9.51807 35.2536 9.55259L35.2587 9.55318C35.6274 9.52141 35.9683 9.34458 36.2066 9.06154C36.445 8.7785 36.5612 8.41242 36.5297 8.04374L36.5302 8.04883L36.5601 1.27276C36.5643 1.23013 36.5598 1.1871 36.5471 1.1462C36.5344 1.1053 36.5137 1.06734 36.4861 1.03456C36.4585 1.00178 36.4247 0.97483 36.3866 0.955295C36.3485 0.935759 36.3068 0.924029 36.2641 0.920791L34.3307 0.912258C34.248 0.922964 34.172 0.963295 34.1168 1.02577C34.0616 1.08825 34.0309 1.16863 34.0305 1.252L34.0304 1.26217L34.0304 1.2616ZM36.0547 8.06593C36.054 8.22563 36.0059 8.38154 35.9166 8.51394C35.8273 8.64634 35.7008 8.74928 35.5529 8.80974C35.4051 8.87021 35.2427 8.88548 35.0862 8.85363C34.9297 8.82179 34.7862 8.74425 34.6737 8.63082C34.5613 8.51739 34.485 8.37317 34.4546 8.2164C34.4241 8.05963 34.4408 7.89734 34.5026 7.75006C34.5643 7.60278 34.6684 7.47713 34.8016 7.38899C34.9347 7.30085 35.0911 7.25418 35.2508 7.25488L35.253 7.25489C35.698 7.25686 36.0567 7.61927 36.0547 8.06367L36.0547 8.06593Z" fill="#666666"/>
<path d="M29.6115 4.01582L29.6158 3.03273C29.4015 3.10543 29.2104 3.23364 29.0618 3.4043C28.9133 3.57496 28.8126 3.78196 28.7701 4.0042L28.769 4.0121L29.6115 4.01582Z" fill="#666666"/>
<path d="M33.5789 8.10638L33.6087 1.36533L31.555 1.35627C31.2502 1.38377 30.9684 1.52993 30.7704 1.76323C30.5724 1.99653 30.474 2.2983 30.4964 2.6035L30.4964 2.59954L30.4491 13.3057C30.4391 13.3148 30.4328 13.3272 30.4315 13.3407C30.3963 13.4147 30.3419 13.478 30.2739 13.524C30.206 13.57 30.127 13.5969 30.0452 13.6021L30.0441 13.6021C29.9425 13.5927 29.8463 13.5524 29.7683 13.4868C29.6903 13.4211 29.6342 13.3332 29.6075 13.2348L29.6069 13.2314L28.7119 13.2275C28.7437 13.9657 29.7942 14.5672 31.111 14.573L38.8876 14.6073C39.192 14.5795 39.4734 14.4334 39.6712 14.2004C39.8691 13.9674 39.9676 13.6661 39.9457 13.3612L39.9457 13.3651L39.9929 2.65896C40.0167 2.35558 39.9209 2.05495 39.726 1.82124C39.5311 1.58753 39.2526 1.43927 38.9498 1.4081L38.9453 1.40752L36.8916 1.39846L36.862 8.10224C36.8572 9.19036 36.1159 10.0652 35.2209 10.0612C34.3084 10.0572 33.5748 9.17644 33.5795 8.10582L33.5789 8.10638Z" fill="#666666"/>
</g>
<defs>
<clipPath id="clip0_3_20">
<rect width="10.0833" height="10.0833" fill="white" transform="translate(10.0833 14) rotate(90)"/>
</clipPath>
<clipPath id="clip1_3_20">
<rect width="11" height="11" fill="white" transform="translate(0 17.2083)"/>
</clipPath>
<clipPath id="clip2_3_20">
<rect width="12.4229" height="12.4229" fill="white" transform="translate(23 2.12935)"/>
</clipPath>
<clipPath id="clip3_3_20">
<rect width="13.5523" height="13.5523" fill="white" transform="translate(26.3881 14.5521) rotate(-89.7471)"/>
</clipPath>
</defs>
</svg>
