<svg width="51" height="51" viewBox="0 0 51 51" fill="none" xmlns="http://www.w3.org/2000/svg">
<circle cx="25.5" cy="25.5" r="25" stroke="#B1E0CF"/>
<path d="M17.6147 22.9943C17.7564 22.9141 17.8371 22.7962 17.8567 22.6406C18.132 20.4623 17.9875 18.3936 17.4232 16.4346L14.5509 18.0597C15.0558 20.2245 15.1598 22.2466 14.8628 24.1261C14.8494 24.2226 14.8829 24.2967 14.9632 24.3485C15.0435 24.4003 15.1266 24.4019 15.2125 24.3533L17.6147 22.9943ZM19.9396 18.7034C19.2553 17.9847 18.519 17.3094 17.7306 16.6774C18.1297 18.1742 18.2874 19.7353 18.2038 21.3607C18.9019 22.1938 19.531 23.0854 20.0911 24.0354C20.1873 22.0917 20.1368 20.3143 19.9396 18.7034ZM23.1098 22.8193C23.3472 20.8846 23.3409 18.9475 23.091 17.0079C22.841 15.0684 22.316 13.2164 21.5161 11.4518L18.6115 13.0951C20.0192 15.9939 20.5848 19.7636 20.3083 24.4043L23.1098 22.8193ZM25.5154 16.6573C24.5056 14.8726 23.3219 13.2863 21.9643 11.8984C23.0102 14.4184 23.5291 17.1337 23.5209 20.0445C24.1304 21.3723 24.5982 22.7301 24.9244 24.1181C24.9453 24.1952 24.9911 24.2485 25.0616 24.278C25.1322 24.3076 25.2018 24.3029 25.2705 24.264L27.5826 22.956C27.6727 22.905 27.7399 22.8308 27.7841 22.7336C27.8283 22.6364 27.8373 22.5396 27.8111 22.4433C27.3309 20.4423 26.5656 18.5137 25.5154 16.6573Z" fill="#666666"/>
<g clip-path="url(#clip0_3_20)">
<path d="M12.9173 34.7556L12.9173 25.3269C12.9173 25.1835 12.8015 25.0677 12.6582 25.0677L8.04661 25.0677C7.90402 25.0677 7.78743 25.1835 7.78743 25.3269L7.78743 34.7556C7.78743 34.8982 7.90323 35.0148 8.04661 35.0148L12.6582 35.0148C12.8007 35.0148 12.9173 34.899 12.9173 34.7556Z" fill="#78909C"/>
<path d="M14.2959 34.7556L14.2959 25.3269C14.2959 25.1835 14.1801 25.0677 14.0367 25.0677L9.42519 25.0677C9.2826 25.0677 9.16601 25.1835 9.16601 25.3269L9.16601 34.7556C9.16601 34.8982 9.28181 35.0148 9.42518 35.0148L14.0367 35.0148C14.1793 35.0148 14.2959 34.899 14.2959 34.7556Z" fill="#B1E0CF"/>
<path d="M10.3051 26.9292C10.2846 26.9962 10.2578 27.0954 10.235 27.2144L10.0073 27.2144C9.97425 27.2144 9.94668 27.242 9.94668 27.2751L9.94668 27.7603C9.94668 27.7942 9.97425 27.821 10.0073 27.821L10.1964 27.821C10.2318 28.2519 10.4185 28.5749 10.7439 28.7584C11.0574 28.9357 11.3828 28.8679 11.638 28.5709C11.7869 28.3834 11.9161 28.0912 12.0209 27.821L12.5195 27.821C12.4612 28.0014 12.4029 28.1636 12.347 28.2952C12.3383 28.3173 12.3454 28.3417 12.3651 28.3551L12.7692 28.6221L12.8078 28.6292L12.8393 28.6048C12.9213 28.4528 13.0473 28.1416 13.1284 27.8218L13.4207 27.8218C13.4368 27.8218 13.4522 27.8154 13.4636 27.804C13.475 27.7926 13.4814 27.7772 13.4814 27.7611L13.4814 27.2758C13.4814 27.2598 13.475 27.2443 13.4636 27.2329C13.4522 27.2216 13.4368 27.2152 13.4207 27.2152L13.2017 27.2152C13.1804 26.7654 13.0245 26.4589 12.7227 26.2833C12.4856 26.1454 12.2186 26.1454 12.0256 26.2833C11.82 26.4282 11.7278 26.6638 11.612 26.9615L11.597 27.0009C11.571 27.0694 11.5435 27.1427 11.5175 27.2152L10.9109 27.2152C10.9865 26.8985 11.1393 26.6031 11.1756 26.5495C11.1826 26.5392 11.1854 26.5267 11.1835 26.5144C11.1816 26.5021 11.1751 26.491 11.1653 26.4834L10.7439 26.1596L10.7077 26.1501L10.6754 26.169C10.5296 26.3644 10.391 26.6488 10.3051 26.9292V26.9292ZM12.6054 27.2144L12.2383 27.2144C12.2824 27.0781 12.3273 26.9922 12.4336 27.0009C12.5431 27.0104 12.5873 27.1151 12.6054 27.2144ZM11.018 28.025C10.9361 27.9935 10.8944 27.9131 10.8731 27.821L11.2914 27.821C11.2457 27.9234 11.1976 28.0006 11.137 28.0289C11.1031 28.0447 11.0645 28.0423 11.018 28.025V28.025Z" fill="#78909C"/>
<path d="M14.4535 31.1839L14.4535 32.917L9.1668 32.917L9.1668 31.1839L14.4535 31.1839Z" fill="#E0E0E0"/>
<path d="M9.16601 31.1839L9.16601 32.917L7.62988 32.917L7.62988 31.1839L9.16601 31.1839Z" fill="#BDBDBD"/>
</g>
<g clip-path="url(#clip1_3_20)">
<path d="M16.8148 34.3638H11.2993C11.0037 34.341 10.7111 34.4355 10.4847 34.6269C10.2583 34.8183 10.1164 35.0911 10.0897 35.3863L10.0893 35.3904C10.1164 35.6895 10.2611 35.9656 10.4917 36.1581C10.7223 36.3505 11.0198 36.4435 11.319 36.4166L11.3148 36.4171H16.8148C16.8495 36.4203 16.8844 36.4165 16.9175 36.4061C16.9507 36.3956 16.9814 36.3786 17.0079 36.3561C17.0344 36.3336 17.0562 36.3061 17.0719 36.2751C17.0876 36.2441 17.097 36.2102 17.0995 36.1755V34.6062C17.0905 34.5391 17.0575 34.4776 17.0066 34.433C16.9556 34.3884 16.8903 34.3638 16.8226 34.3638H16.8144H16.8148ZM11.2993 36.0312C11.1696 36.0312 11.0429 35.9927 10.9351 35.9207C10.8273 35.8487 10.7433 35.7463 10.6937 35.6266C10.6441 35.5068 10.6311 35.375 10.6564 35.2479C10.6817 35.1208 10.7441 35.004 10.8358 34.9123C10.9275 34.8206 11.0442 34.7582 11.1714 34.7329C11.2985 34.7076 11.4303 34.7206 11.5501 34.7702C11.6698 34.8198 11.7722 34.9038 11.8442 35.0116C11.9162 35.1194 11.9547 35.2461 11.9547 35.3758V35.3776C11.9547 35.7388 11.6618 36.0312 11.3011 36.0312H11.2993Z" fill="#666666"/>
<path d="M14.5635 30.7869H15.3615C15.3017 30.6133 15.1969 30.4586 15.0579 30.3386C14.9188 30.2186 14.7505 30.1377 14.5699 30.104L14.5635 30.1031V30.7869Z" fill="#666666"/>
<path d="M11.2575 34.0218H16.7291V32.3549C16.7057 32.1076 16.5861 31.8794 16.396 31.7195C16.2059 31.5596 15.9606 31.4808 15.713 31.5001H15.7162H7.02621C7.01881 31.492 7.00869 31.487 6.99779 31.4859C6.93754 31.4576 6.88596 31.4137 6.84841 31.3587C6.81085 31.3037 6.78868 31.2397 6.78421 31.1733V31.1724C6.7915 31.0899 6.82382 31.0117 6.87681 30.9481C6.92981 30.8846 7.00097 30.8387 7.08075 30.8167L7.0835 30.8163V30.0898C6.48446 30.1182 6 30.973 6 32.0418V38.354C6.02365 38.601 6.14323 38.8288 6.33307 38.9886C6.5229 39.1483 6.76782 39.2272 7.01521 39.2083H7.012H15.702C15.9483 39.2265 16.192 39.1477 16.381 38.9886C16.57 38.8296 16.6893 38.603 16.7135 38.3572L16.714 38.3535V36.6866H11.2727C10.3895 36.6866 9.67675 36.088 9.67675 35.3615C9.67675 34.6209 10.389 34.0223 11.258 34.0223L11.2575 34.0218Z" fill="#666666"/>
</g>
<g clip-path="url(#clip2_3_20)">
<path d="M41.0192 17.0299H29.4028C29.2261 17.0299 29.0835 17.1726 29.0835 17.3493V23.0308C29.0835 23.2065 29.2261 23.3501 29.4028 23.3501H41.0192C41.1948 23.3501 41.3385 23.2074 41.3385 23.0308V17.3493C41.3385 17.1736 41.1958 17.0299 41.0192 17.0299Z" fill="#78909C"/>
<path d="M41.0201 15.3315H29.4028C29.2261 15.3315 29.0835 15.4742 29.0835 15.6508V21.3323C29.0835 21.508 29.2261 21.6517 29.4028 21.6517H41.0192C41.1948 21.6517 41.3385 21.509 41.3385 21.3323V15.6508C41.3385 15.4742 41.1958 15.3315 41.0201 15.3315Z" fill="#B1E0CF"/>
<path d="M33.8081 19.2729L33.7692 19.2816C33.514 19.4844 33.0743 19.6378 32.7473 19.6378C32.394 19.6378 32.1028 19.5009 31.9126 19.2767H32.6017C32.6347 19.2767 32.6599 19.2505 32.6599 19.2185V18.7905C32.6599 18.7585 32.6337 18.7323 32.6017 18.7323H31.6845C31.6787 18.6876 31.6719 18.643 31.6719 18.5954C31.6719 18.5479 31.6787 18.5032 31.6845 18.4586H32.6017C32.6347 18.4586 32.6599 18.4324 32.6599 18.4003V17.9714C32.6599 17.9393 32.6337 17.9131 32.6017 17.9131H31.9136C32.1048 17.6889 32.3949 17.5521 32.7482 17.5521C33.0899 17.5521 33.4412 17.6627 33.6634 17.8403L33.7013 17.8491L33.7314 17.8248L34.1283 17.028L34.1167 16.9727C33.7624 16.6922 33.3121 16.5554 32.7405 16.5554C31.7738 16.5554 31.0207 17.0969 30.7509 17.9122H30.1113C30.0792 17.9122 30.053 17.9384 30.053 17.9704V18.3994C30.053 18.4314 30.0792 18.4576 30.1113 18.4576H30.648C30.6451 18.5032 30.6412 18.5479 30.6412 18.5945C30.6412 18.6401 30.6451 18.6857 30.648 18.7313H30.1113C30.0792 18.7313 30.053 18.7575 30.053 18.7895V19.2175C30.053 19.2496 30.0792 19.2758 30.1113 19.2758H30.7509C31.0207 20.091 31.7738 20.6336 32.7405 20.6336C33.2975 20.6336 33.778 20.4637 34.1701 20.1298L34.1827 20.0774L33.8391 19.2971L33.8081 19.2729V19.2729Z" fill="#78909C"/>
<path d="M36.6187 15.1374H38.7539V21.6507H36.6187V15.1374Z" fill="#E0E0E0"/>
<path d="M36.6187 21.6517H38.7539V23.5442H36.6187V21.6517Z" fill="#BDBDBD"/>
</g>
<g clip-path="url(#clip3_3_20)">
<path d="M40.0304 12.2616L40.0004 19.0569C39.9708 19.4209 40.0856 19.7819 40.3202 20.0618C40.5547 20.3418 40.8901 20.5181 41.2536 20.5526L41.2587 20.5532C41.6274 20.5214 41.9683 20.3446 42.2066 20.0615C42.445 19.7785 42.5612 19.4124 42.5297 19.0437L42.5302 19.0488L42.5601 12.2728C42.5643 12.2301 42.5598 12.1871 42.5471 12.1462C42.5344 12.1053 42.5137 12.0673 42.4861 12.0346C42.4585 12.0018 42.4247 11.9748 42.3866 11.9553C42.3485 11.9358 42.3068 11.924 42.2641 11.9208L40.3307 11.9123C40.248 11.923 40.172 11.9633 40.1168 12.0258C40.0616 12.0882 40.0309 12.1686 40.0305 12.252L40.0304 12.2622L40.0304 12.2616ZM42.0547 19.0659C42.054 19.2256 42.0059 19.3815 41.9166 19.5139C41.8273 19.6463 41.7008 19.7493 41.5529 19.8097C41.4051 19.8702 41.2427 19.8855 41.0862 19.8536C40.9297 19.8218 40.7862 19.7442 40.6737 19.6308C40.5613 19.5174 40.485 19.3732 40.4546 19.2164C40.4241 19.0596 40.4408 18.8973 40.5026 18.7501C40.5643 18.6028 40.6684 18.4771 40.8016 18.389C40.9347 18.3008 41.0911 18.2542 41.2508 18.2549L41.253 18.2549C41.698 18.2569 42.0567 18.6193 42.0547 19.0637L42.0547 19.0659Z" fill="#666666"/>
<path d="M35.6115 15.0158L35.6158 14.0327C35.4015 14.1054 35.2104 14.2336 35.0618 14.4043C34.9133 14.575 34.8126 14.782 34.7701 15.0042L34.769 15.0121L35.6115 15.0158Z" fill="#666666"/>
<path d="M39.5789 19.1064L39.6087 12.3653L37.555 12.3563C37.2502 12.3838 36.9684 12.5299 36.7704 12.7632C36.5724 12.9965 36.474 13.2983 36.4964 13.6035L36.4964 13.5995L36.4491 24.3057C36.4391 24.3148 36.4328 24.3272 36.4315 24.3407C36.3963 24.4147 36.3419 24.478 36.2739 24.524C36.206 24.57 36.127 24.5969 36.0452 24.6021L36.0441 24.6021C35.9425 24.5927 35.8463 24.5524 35.7683 24.4868C35.6903 24.4211 35.6342 24.3332 35.6075 24.2348L35.6069 24.2314L34.7119 24.2275C34.7437 24.9657 35.7942 25.5672 37.111 25.573L44.8876 25.6073C45.192 25.5795 45.4734 25.4334 45.6712 25.2004C45.8691 24.9674 45.9676 24.6661 45.9457 24.3612L45.9457 24.3651L45.9929 13.659C46.0167 13.3556 45.9209 13.0549 45.726 12.8212C45.5311 12.5875 45.2526 12.4393 44.9498 12.4081L44.9453 12.4075L42.8916 12.3985L42.862 19.1022C42.8572 20.1904 42.1159 21.0652 41.2209 21.0612C40.3084 21.0572 39.5748 20.1764 39.5795 19.1058L39.5789 19.1064Z" fill="#666666"/>
</g>
<defs>
<clipPath id="clip0_3_20">
<rect width="10.0833" height="10.0833" fill="white" transform="translate(16.0833 25) rotate(90)"/>
</clipPath>
<clipPath id="clip1_3_20">
<rect width="11" height="11" fill="white" transform="translate(6 28.2083)"/>
</clipPath>
<clipPath id="clip2_3_20">
<rect width="12.4229" height="12.4229" fill="white" transform="translate(29 13.1293)"/>
</clipPath>
<clipPath id="clip3_3_20">
<rect width="13.5523" height="13.5523" fill="white" transform="translate(32.3881 25.5521) rotate(-89.7471)"/>
</clipPath>
</defs>
</svg>
