<svg width="10" height="10" viewBox="0 0 10 10" fill="none" xmlns="http://www.w3.org/2000/svg">
<circle cx="5" cy="5" r="5" fill="#C4C4C4"/>
<path d="M7.75138 4.40662C7.79238 4.36559 7.81542 4.30996 7.81542 4.25196C7.81542 4.19396 7.79238 4.13832 7.75138 4.0973L5.71875 2.06424L5.68812 2.03843C5.64598 2.00948 5.59502 1.99622 5.54411 2.00093C5.4932 2.00565 5.44555 2.02805 5.40944 2.06424L5.38406 2.09487C5.35503 2.13703 5.34167 2.18803 5.34631 2.23901C5.35094 2.29 5.37328 2.33775 5.40944 2.37399L7.06844 4.03299H2.21875C2.16073 4.03299 2.10509 4.05604 2.06407 4.09706C2.02305 4.13808 2 4.19372 2 4.25174C2 4.30976 2.02305 4.3654 2.06407 4.40642C2.10509 4.44744 2.16073 4.47049 2.21875 4.47049H7.59694C7.65484 4.47048 7.71038 4.44751 7.75138 4.40662V4.40662ZM8.125 5.56424C8.125 5.50622 8.10195 5.45058 8.06093 5.40956C8.01991 5.36854 7.96427 5.34549 7.90625 5.34549H2.52806C2.48483 5.3455 2.44257 5.35832 2.40662 5.38233C2.37067 5.40634 2.34264 5.44046 2.32607 5.48039C2.3095 5.52032 2.30513 5.56427 2.31351 5.60668C2.3219 5.64909 2.34267 5.68806 2.37319 5.71868L4.40625 7.75174L4.43687 7.77755C4.48189 7.80792 4.53659 7.8205 4.59035 7.81285C4.64411 7.80519 4.69312 7.77785 4.72788 7.73613C4.76263 7.6944 4.78066 7.64125 4.77847 7.58699C4.77627 7.53273 4.75401 7.48121 4.716 7.44243L3.05525 5.78299H7.90625C7.96427 5.78299 8.01991 5.75994 8.06093 5.71892C8.10195 5.6779 8.125 5.62226 8.125 5.56424V5.56424Z" fill="#666666"/>
</svg>
